<svg xmlns="http://www.w3.org/2000/svg" width="15" height="13" viewBox="0 0 15 13">
    <path fill="#121212" fill-rule="evenodd" d="M14.944 1.558c-.476.227-1 .365-1.515.456.244-.044.604-.509.748-.697.219-.286.402-.613.505-.966.012-.028.022-.063-.004-.083-.033-.014-.054-.007-.08.007-.574.324-1.168.558-1.8.724-.053.014-.091 0-.124-.034-.053-.062-.102-.12-.157-.17-.266-.237-.551-.424-.873-.562-.421-.18-.882-.257-1.337-.226-.442.03-.876.161-1.268.377-.393.216-.744.517-1.024.88-.289.374-.502.817-.61 1.287-.106.454-.097.902-.033 1.36.01.076.003.087-.063.076C4.838 3.6 2.79 2.67 1.125.675 1.053.589 1.013.589.954.682.226 1.83.579 3.674 1.489 4.58c.12.12.245.241.38.351-.05.011-.654-.058-1.194-.351-.072-.049-.108-.02-.114.065-.007.124.003.238.02.373.139 1.164.905 2.24 1.954 2.66.124.056.262.104.397.128-.24.055-.486.094-1.171.038-.086-.017-.118.027-.086.114.515 1.477 1.627 1.916 2.46 2.166.111.02.223.02.334.049-.006.01-.013.01-.02.02-.275.443-1.233.773-1.679.937-.81.298-1.693.432-2.55.343-.137-.02-.167-.019-.203 0-.038.025-.006.06.039.097.174.12.35.228.531.331.544.304 1.112.545 1.705.718 3.064.89 6.516.236 8.817-2.17 1.807-1.888 2.44-4.493 2.44-7.1 0-.103.115-.16.183-.214.47-.371.844-.816 1.194-1.313.08-.111.074-.21.074-.251v-.014c0-.042.005-.029-.056 0"/>
</svg>
