<svg xmlns="http://www.w3.org/2000/svg" xmlns:xlink="http://www.w3.org/1999/xlink" width="162" height="26" viewBox="0 0 162 26">
    <defs>
        <path id="prefix__a" d="M0.816 0.264L17.913 0.264 17.913 16.613 0.816 16.613z"/>
        <path id="prefix__c" d="M0.079 0.292L16.787 0.292 16.787 17 0.079 17z"/>
        <path id="prefix__e" d="M0.802 0.423L17.511 0.423 17.511 26 0.802 26z"/>
        <path id="prefix__g" d="M0 0.066L17.648 0.066 17.648 17 0 17z"/>
    </defs>
    <g fill="none" fill-rule="evenodd">
        <text fill="#2D3039" font-family="Gilroy-Light, Gilroy" font-size="14" font-weight="300" letter-spacing=".778" transform="translate(0 -1)">
            <tspan x="117" y="25">CLASS</tspan>
        </text>
        <path fill="#121212" d="M64.994 12.365v12.756c0 .59.47 1.07 1.05 1.07h2.44c.58 0 1.05-.48 1.05-1.07V10.438c0-.45-.46-.746-.859-.553l-3.063 1.483c-.377.183-.618.571-.618.997" transform="translate(0 -1)"/>
        <g transform="translate(0 -1) translate(92 9.577)">
            <mask id="prefix__b" fill="#fff">
                <use xlink:href="#prefix__a"/>
            </mask>
            <path fill="#121212" d="M16.864 16.613h-2.442c-.579 0-1.049-.47-1.049-1.049V8.955c0-2.134-1.605-3.999-3.734-4.142-2.334-.156-4.283 1.698-4.283 4v6.751c0 .58-.47 1.05-1.05 1.05H1.864c-.58 0-1.048-.47-1.048-1.05V9.04C.816 4.258 4.728.186 9.508.265c4.647.078 8.404 3.882 8.404 8.548v6.751c0 .58-.47 1.05-1.049 1.05" mask="url(#prefix__b)"/>
        </g>
        <g transform="translate(0 -1) translate(73 9.577)">
            <mask id="prefix__d" fill="#fff">
                <use xlink:href="#prefix__c"/>
            </mask>
            <path fill="#121212" d="M8.433 12.46c-2.103 0-3.814-1.71-3.814-3.814 0-2.103 1.71-3.814 3.814-3.814 2.103 0 3.814 1.711 3.814 3.814 0 2.103-1.711 3.814-3.814 3.814m0-12.168C3.827.292.079 4.04.079 8.646.079 13.252 3.827 17 8.433 17c4.606 0 8.354-3.748 8.354-8.354 0-4.606-3.748-8.354-8.354-8.354" mask="url(#prefix__d)"/>
        </g>
        <path fill="#121212" d="M59.586 15.413c.58 0 1.05-.47 1.05-1.05v-2.441c0-.58-.47-1.05-1.05-1.05h-3.693V5.295c0-.77-.803-1.278-1.499-.947l-2.442 1.16c-.366.174-.599.543-.599.948v11.832c0 4.358 3.546 7.903 7.903 7.903h.33c.58 0 1.05-.47 1.05-1.05V22.7c0-.58-.47-1.05-1.05-1.05h-.33c-1.854 0-3.363-1.508-3.363-3.363v-2.874h3.693zM41.953 12.365v12.756c0 .59.47 1.07 1.05 1.07h2.441c.58 0 1.05-.48 1.05-1.07V10.438c0-.45-.46-.746-.86-.553l-3.062 1.483c-.378.183-.619.571-.619.997" transform="translate(0 -1)"/>
        <g transform="translate(0 -1) translate(20 .577)">
            <mask id="prefix__f" fill="#fff">
                <use xlink:href="#prefix__e"/>
            </mask>
            <path fill="#121212" d="M9.156 21.46c-2.103 0-3.814-1.71-3.814-3.814 0-2.103 1.712-3.814 3.814-3.814 2.104 0 3.814 1.711 3.814 3.814 0 2.103-1.71 3.814-3.814 3.814m8.351-20.396c-.002-.016-.003-.033-.006-.042-.046-.45-.523-.734-.944-.534L13.462 1.96c-.3.142-.49.443-.49.774v7.481c-1.145-.59-2.441-.923-3.815-.923-4.606 0-8.354 3.748-8.354 8.354C.803 22.252 4.552 26 9.156 26c4.606 0 8.354-3.748 8.354-8.354V1.09c0-.009-.003-.017-.003-.026" mask="url(#prefix__f)"/>
        </g>
        <path fill="#121212" d="M13.87 4.14l3.416 1.623c.482.23.482.917 0 1.146L13.87 8.532c-.43.204-.925-.109-.925-.585V4.725c0-.476.495-.789.925-.585" transform="translate(0 -1)"/>
        <g transform="translate(0 -1) translate(0 9.577)">
            <mask id="prefix__h" fill="#fff">
                <use xlink:href="#prefix__g"/>
            </mask>
            <path fill="#121212" d="M8.824 12.451c-2.334.156-4.284-1.698-4.284-4V2.378c0-.331-.191-.633-.49-.775L.953.131C.511-.079 0 .243 0 .733v7.491c0 4.782 3.913 8.854 8.694 8.775h.259c4.782.079 8.695-3.993 8.695-8.775V.733c0-.49-.511-.812-.953-.602l-3.098 1.472c-.299.142-.489.444-.489.775v6.073c0 2.302-1.95 4.156-4.284 4" mask="url(#prefix__h)"/>
        </g>
    </g>
</svg>
