<svg xmlns="http://www.w3.org/2000/svg" width="34" height="33" viewBox="0 0 34 33">
    <g fill="none" fill-rule="evenodd">
        <path fill="#FFF" d="M23.912 20.04l-2.125-1.147c-.518-.278-.92-.077-1.366.537-.978 1.346-1.453 1.612-2.654.942-1.12-.626-1.922-1.369-2.93-2.375-1.005-1.007-1.748-1.809-2.374-2.93-.67-1.2-.404-1.675.942-2.653.613-.446.815-.849.536-1.366l-1.145-2.125c-.468-.904-1.133-1.008-2.114-.675-1.354.458-2.665 2.414-2.6 3.342.196 2.712 1.554 5.97 4.379 8.796 2.826 2.826 6.085 4.184 8.797 4.378.928.067 2.87-1.257 3.329-2.61.332-.983.229-1.647-.675-2.115" transform="translate(1)"/>
        <path stroke="#FFF" d="M32.34 16.42c0 8.792-7.127 15.92-15.92 15.92C7.629 32.34.5 25.212.5 16.42S7.628.5 16.42.5c8.793 0 15.92 7.128 15.92 15.92z" transform="translate(1)"/>
    </g>
</svg>
