<svg xmlns="http://www.w3.org/2000/svg" width="16" height="16" viewBox="0 0 16 16">
    <path fill="#121212" fill-rule="evenodd" d="M15 11.43c0 1.972-1.598 3.57-3.57 3.57H4.57C2.598 15 1 13.402 1 11.43V4.57C1 2.598 2.598 1 4.57 1h6.86C13.402 1 15 2.598 15 4.57v6.86zm1-6.61C16 2.157 13.843 0 11.18 0H4.82C2.157 0 0 2.158 0 4.82v6.36C0 13.843 2.157 16 4.82 16h6.36c2.663 0 4.82-2.158 4.82-4.82V4.82zM8 11c-1.654 0-3-1.346-3-3s1.346-3 3-3 3 1.346 3 3-1.346 3-3 3zm0-7C5.794 4 4 5.794 4 8s1.794 4 4 4 4-1.794 4-4-1.794-4-4-4zm4-2c-.552 0-1 .447-1 1 0 .552.448 1 1 1s1-.448 1-1c0-.553-.448-1-1-1z"/>
</svg>
